<svg width="21" height="30" viewBox="0 0 21 30" fill="none" xmlns="http://www.w3.org/2000/svg">
<path d="M18.2812 0H2.34375C1.72215 0 1.12601 0.24693 0.686468 0.686468C0.24693 1.12601 0 1.72215 0 2.34375V27.6562C0 28.2779 0.24693 28.874 0.686468 29.3135C1.12601 29.7531 1.72215 30 2.34375 30H18.2812C18.9029 30 19.499 29.7531 19.9385 29.3135C20.3781 28.874 20.625 28.2779 20.625 27.6562V2.34375C20.625 1.72215 20.3781 1.12601 19.9385 0.686468C19.499 0.24693 18.9029 0 18.2812 0ZM18.2812 27.6562H2.34375V2.34375H18.2812V27.6562Z" fill="#D9B23D"/>
</svg>
