<svg width="27" height="19" viewBox="0 0 27 19" fill="none" xmlns="http://www.w3.org/2000/svg">
<path d="M2.8125 0C1.27031 0 0 1.27031 0 2.8125V15.9375C0 17.4797 1.27031 18.75 2.8125 18.75H23.4375C24.9797 18.75 26.25 17.4797 26.25 15.9375V2.8125C26.25 1.27031 24.9797 0 23.4375 0H2.8125ZM2.8125 1.875H23.4375C23.9672 1.875 24.375 2.28281 24.375 2.8125V4.6875H2.8125V6.5625H24.375V15.9375C24.375 16.4672 23.9672 16.875 23.4375 16.875H2.8125C2.28281 16.875 1.875 16.4672 1.875 15.9375V2.8125C1.875 2.28281 2.28281 1.875 2.8125 1.875Z" fill="#9AA2AC"/>
</svg>
