<svg width="49" height="49" viewBox="0 0 49 49" fill="none" xmlns="http://www.w3.org/2000/svg">
<rect width="48.5003" height="49" rx="12" fill="#1D78FF" fill-opacity="0.1"/>
<path fill-rule="evenodd" clip-rule="evenodd" d="M34.25 22.225C33.8625 18.25 31.5125 12 24.2501 12C16.9875 12 14.6375 18.25 14.25 22.225C12.8907 22.7409 11.994 24.0461 12 25.5V27.25C12 29.183 13.5671 30.75 15.5 30.75C17.433 30.75 19.0001 29.183 19.0001 27.25V25.5C18.9937 24.0774 18.1301 22.7991 16.8125 22.2625C17.0625 19.9625 18.2876 14.5 24.2501 14.5C30.2126 14.5 31.425 19.9625 31.6751 22.2625C30.3602 22.8003 29.5009 24.0795 29.5001 25.5V27.25C29.5027 27.9086 29.6905 28.5532 30.0419 29.1101C30.3934 29.6671 30.8943 30.1141 31.4876 30.4C30.9626 31.3875 29.625 32.725 26.3375 33.125C25.6804 32.1271 24.409 31.7337 23.3031 32.1861C22.1972 32.6385 21.566 33.8102 21.7966 34.9825C22.0272 36.1549 23.0552 37 24.2501 37C24.713 36.9974 25.1662 36.8663 25.559 36.6214C25.9519 36.3764 26.269 36.0271 26.475 35.6125C31.8375 35 33.5501 32.2375 34.0875 30.6125C35.5417 30.1414 36.5196 28.7784 36.5 27.25V25.5C36.506 24.0461 35.6094 22.7409 34.25 22.225ZM16.5 27.25C16.5 27.8023 16.0523 28.25 15.5 28.25C14.9477 28.25 14.5 27.8023 14.5 27.25V25.5C14.499 25.368 14.5242 25.2372 14.574 25.115C14.6238 24.9928 14.6973 24.8816 14.7902 24.7879C14.8832 24.6943 14.9938 24.6199 15.1156 24.5692C15.2374 24.5184 15.3681 24.4923 15.5 24.4923C15.632 24.4923 15.7627 24.5184 15.8845 24.5692C16.0063 24.6199 16.1169 24.6943 16.2099 24.7879C16.3028 24.8816 16.3763 24.9928 16.4261 25.115C16.4759 25.2372 16.501 25.368 16.5 25.5V27.25ZM32 25.5C32 24.9477 32.4477 24.5 33 24.5C33.5523 24.5 34.0001 24.9477 34.0001 25.5V27.25C34.0001 27.8023 33.5523 28.25 33 28.25C32.4477 28.25 32 27.8023 32 27.25V25.5Z" fill="#1D78FF"/>
</svg>
