<svg width="16" height="16" viewBox="0 0 16 16" fill="none" xmlns="http://www.w3.org/2000/svg">
<path d="M14.4 8C14.4 6.30261 13.7257 4.67475 12.5255 3.47452C11.3253 2.27428 9.69739 1.6 8 1.6C6.30261 1.6 4.67475 2.27428 3.47452 3.47452C2.27428 4.67475 1.6 6.30261 1.6 8C1.6 9.69739 2.27428 11.3253 3.47452 12.5255C4.67475 13.7257 6.30261 14.4 8 14.4C9.69739 14.4 11.3253 13.7257 12.5255 12.5255C13.7257 11.3253 14.4 9.69739 14.4 8ZM16 8C16 12.4184 12.4184 16 8 16C3.5816 16 0 12.4184 0 8C0 3.5816 3.5816 0 8 0C12.4184 0 16 3.5816 16 8ZM11.7648 6.8512C11.6256 7.6936 11.1848 8.1048 10.588 8.2504C11.3816 8.6944 11.764 9.3688 11.3552 10.552C10.8472 12.0352 9.7096 12.1696 8.2032 11.8824L7.8144 13.448L6.9392 13.2312L7.3272 11.6656C7.0888 11.6016 6.8456 11.5552 6.608 11.4872L6.22 13.0528L5.3464 12.8368L5.7344 11.2704L3.9936 10.7968L4.4256 9.6896C4.4256 9.6896 5.0832 9.8704 5.0736 9.8592C5.3168 9.9184 5.436 9.7472 5.4848 9.6288L6.1056 7.1192L6.5584 5.3352C6.5776 5.1424 6.5168 4.8896 6.1608 4.7936C6.1848 4.78 5.5208 4.6352 5.5208 4.6352L5.7792 3.5856L7.5736 4.0304L7.9536 2.4968L8.8576 2.7208L8.4776 4.2544C8.7104 4.3056 8.9368 4.3664 9.1704 4.4264L9.5496 2.8928L10.4296 3.1104L10.0392 4.684C11.1488 5.092 11.948 5.6944 11.7648 6.8512ZM7.6848 7.1632C8.2104 7.3216 9.7688 7.7896 10.0312 6.7472C10.276 5.7552 8.9256 5.4528 8.2984 5.312C8.22373 5.296 8.16107 5.28133 8.1104 5.268L7.6408 7.1504L7.6848 7.1632ZM6.8736 10.2192L6.9496 10.2424C7.5976 10.4344 9.4344 10.9808 9.684 9.9464C9.94 8.9496 8.2888 8.5616 7.5488 8.3872C7.4672 8.36853 7.3984 8.352 7.3424 8.3376L6.8736 10.2192Z" fill="#F9AA4B"/>
</svg>
