<svg width="16" height="16" viewBox="0 0 16 16" fill="none" xmlns="http://www.w3.org/2000/svg">
<path d="M2.5 11.4688L13.625 0.343751C13.8542 0.114584 14.1458 -9.53674e-07 14.5 -9.53674e-07C14.8542 -9.53674e-07 15.1458 0.114584 15.375 0.343751C15.6042 0.572918 15.7188 0.864583 15.7188 1.21875C15.7188 1.57292 15.6042 1.86458 15.375 2.09375L4.25 13.2188H13.75C14.1042 13.2188 14.4008 13.3388 14.64 13.5788C14.8792 13.8188 14.9992 14.1154 15 14.4688C15.0008 14.8221 14.8808 15.1187 14.64 15.3587C14.3992 15.5987 14.1025 15.7188 13.75 15.7188H1.25C0.895834 15.7188 0.598751 15.5987 0.358751 15.3587C0.118752 15.1187 -0.000833511 14.8221 0 14.4688V1.96875C0 1.61458 0.120001 1.3175 0.360001 1.0775C0.6 0.837501 0.896667 0.717916 1.25 0.71875C1.60333 0.719584 1.9 0.839583 2.14 1.07875C2.38 1.31792 2.5 1.61458 2.5 1.96875V11.4688Z" fill="#00A82D"/>
</svg>
