<svg width="40" height="40" viewBox="0 0 40 40" fill="none" xmlns="http://www.w3.org/2000/svg">
<path d="M14.5 23.4688L25.625 12.3438C25.8542 12.1146 26.1458 12 26.5 12C26.8542 12 27.1458 12.1146 27.375 12.3438C27.6042 12.5729 27.7188 12.8646 27.7188 13.2187C27.7188 13.5729 27.6042 13.8646 27.375 14.0938L16.25 25.2188H25.75C26.1042 25.2188 26.4008 25.3388 26.64 25.5788C26.8792 25.8188 26.9992 26.1154 27 26.4688C27.0008 26.8221 26.8808 27.1187 26.64 27.3587C26.3992 27.5987 26.1025 27.7188 25.75 27.7188H13.25C12.8958 27.7188 12.5988 27.5987 12.3588 27.3587C12.1188 27.1187 11.9992 26.8221 12 26.4688V13.9688C12 13.6146 12.12 13.3175 12.36 13.0775C12.6 12.8375 12.8967 12.7179 13.25 12.7188C13.6033 12.7196 13.9 12.8396 14.14 13.0788C14.38 13.3179 14.5 13.6146 14.5 13.9688V23.4688Z" fill="#F7931A"/>
</svg>
