<svg width="20" height="25" viewBox="0 0 20 25" fill="none" xmlns="http://www.w3.org/2000/svg">
<path d="M8.49164 15.625L1.08539 14.6875C0.564556 14.625 0.225806 14.3438 0.0691393 13.8438C-0.0875274 13.3438 0.022056 12.9167 0.397889 12.5625L13.1791 0.3125C13.2833 0.208333 13.4083 0.130417 13.5541 0.07875C13.7 0.0270833 13.8979 0.000833333 14.1479 0C14.5646 0 14.8825 0.177083 15.1016 0.53125C15.3208 0.885417 15.3258 1.25 15.1166 1.625L10.9916 9.375L18.3979 10.3125C18.9187 10.375 19.2575 10.6562 19.4141 11.1562C19.5708 11.6562 19.4612 12.0833 19.0854 12.4375L6.30414 24.6875C6.19997 24.7917 6.07497 24.87 5.92914 24.9225C5.78331 24.975 5.58539 25.0008 5.33539 25C4.91872 25 4.60081 24.8229 4.38164 24.4688C4.16247 24.1146 4.15747 23.75 4.36664 23.375L8.49164 15.625ZM10.4291 17.2812L15.4604 12.4688L7.05414 11.4062L9.02289 7.75L4.02289 12.5625L12.3979 13.5938L10.4291 17.2812Z" fill="#00A82D"/>
</svg>
