<svg width="44" height="40" viewBox="0 0 44 40" fill="none" xmlns="http://www.w3.org/2000/svg">
<rect width="44" height="40" rx="12" fill="#F7931A" fill-opacity="0.1"/>
<path d="M32 28V12H12V28H32Z" stroke="#F7931A" stroke-width="2" stroke-linecap="square"/>
<path d="M16 18H18.5M16 22H18.5M22.5 23.5C22.5 22.7044 22.8161 21.9413 23.3787 21.3787C23.9413 20.8161 24.7044 20.5 25.5 20.5M25.5 20.5C26.2956 20.5 27.0587 20.8161 27.6213 21.3787C28.1839 21.9413 28.5 22.7044 28.5 23.5M25.5 20.5C26.0304 20.5 26.5391 20.2893 26.9142 19.9142C27.2893 19.5391 27.5 19.0304 27.5 18.5C27.5 17.9696 27.2893 17.4609 26.9142 17.0858C26.5391 16.7107 26.0304 16.5 25.5 16.5C24.9696 16.5 24.4609 16.7107 24.0858 17.0858C23.7107 17.4609 23.5 17.9696 23.5 18.5C23.5 19.0304 23.7107 19.5391 24.0858 19.9142C24.4609 20.2893 24.9696 20.5 25.5 20.5Z" stroke="#F7931A" stroke-width="2" stroke-linecap="square"/>
</svg>
