<svg width="45" height="45" viewBox="0 0 45 45" fill="none" xmlns="http://www.w3.org/2000/svg">
<g clip-path="url(#clip0_549_94)">
<path d="M37.8 0H7.2C3.22355 0 0 3.22355 0 7.2V37.8C0 41.7765 3.22355 45 7.2 45H37.8C41.7765 45 45 41.7765 45 37.8V7.2C45 3.22355 41.7765 0 37.8 0Z" fill="#3B82F6"/>
<path d="M16.2002 34.2001V26.1001L30.6002 19.8001V12.6001L34.2002 14.4001V30.6001L19.8002 36.0001L16.2002 34.2001ZM30.6002 27.9001V23.4001L24.0594 26.1001L19.8002 27.9001V30.6001L21.6002 31.5001L30.6002 27.9001Z" fill="white"/>
<path d="M28.7998 10.8V18.9L14.3998 25.2V32.4L10.7998 30.6V14.4L25.1998 9L28.7998 10.8ZM14.3998 17.1V21.6L20.9406 18.9L25.1998 17.1V14.4L23.3998 13.5L14.3998 17.1Z" fill="white"/>
</g>
<defs>
<clipPath id="clip0_549_94">
<rect width="45" height="45" fill="white"/>
</clipPath>
</defs>
</svg>
