<svg width="172" height="45" viewBox="0 0 172 45" fill="none" xmlns="http://www.w3.org/2000/svg">
<g clip-path="url(#clip0_294_990)">
<path d="M37.8 0H7.2C3.22355 0 0 3.22355 0 7.2V37.8C0 41.7765 3.22355 45 7.2 45H37.8C41.7765 45 45 41.7765 45 37.8V7.2C45 3.22355 41.7765 0 37.8 0Z" fill="#3B82F6"/>
<path d="M16.2002 34.2V26.1L30.6002 19.8V12.6L34.2002 14.4V30.6L19.8002 36L16.2002 34.2ZM30.6002 27.9V23.4L24.0594 26.1L19.8002 27.9V30.6L21.6002 31.5L30.6002 27.9Z" fill="white"/>
<path d="M28.7998 10.8V18.9L14.3998 25.2V32.4L10.7998 30.6V14.4L25.1998 9L28.7998 10.8ZM14.3998 17.1V21.6L20.9406 18.9L25.1998 17.1V14.4L23.3998 13.5L14.3998 17.1Z" fill="white"/>
</g>
<path d="M57.0227 34V10.7273H66.2045C67.9697 10.7273 69.4735 11.0644 70.7159 11.7386C71.9583 12.4053 72.9053 13.3333 73.5568 14.5227C74.2159 15.7045 74.5455 17.0682 74.5455 18.6136C74.5455 20.1591 74.2121 21.5227 73.5455 22.7045C72.8788 23.8864 71.9129 24.8068 70.6477 25.4659C69.3902 26.125 67.8674 26.4545 66.0795 26.4545H60.2273V22.5114H65.2841C66.2311 22.5114 67.0114 22.3485 67.625 22.0227C68.2462 21.6894 68.7083 21.2311 69.0114 20.6477C69.322 20.0568 69.4773 19.3788 69.4773 18.6136C69.4773 17.8409 69.322 17.1667 69.0114 16.5909C68.7083 16.0076 68.2462 15.5568 67.625 15.2386C67.0038 14.9129 66.2159 14.75 65.2614 14.75H61.9432V34H57.0227ZM82.1591 34.3295C81.0455 34.3295 80.053 34.1364 79.1818 33.75C78.3106 33.3561 77.6212 32.7765 77.1136 32.0114C76.6136 31.2386 76.3636 30.2765 76.3636 29.125C76.3636 28.1553 76.5417 27.3409 76.8977 26.6818C77.2538 26.0227 77.7386 25.4924 78.3523 25.0909C78.9659 24.6894 79.6629 24.3864 80.4432 24.1818C81.2311 23.9773 82.0568 23.8333 82.9205 23.75C83.9356 23.6439 84.7538 23.5455 85.375 23.4545C85.9962 23.3561 86.447 23.2121 86.7273 23.0227C87.0076 22.8333 87.1477 22.553 87.1477 22.1818V22.1136C87.1477 21.3939 86.9205 20.8371 86.4659 20.4432C86.0189 20.0492 85.3826 19.8523 84.5568 19.8523C83.6856 19.8523 82.9924 20.0455 82.4773 20.4318C81.9621 20.8106 81.6212 21.2879 81.4545 21.8636L76.9773 21.5C77.2045 20.4394 77.6515 19.5227 78.3182 18.75C78.9848 17.9697 79.8447 17.3712 80.8977 16.9545C81.9583 16.5303 83.1856 16.3182 84.5795 16.3182C85.5492 16.3182 86.4773 16.4318 87.3636 16.6591C88.2576 16.8864 89.0492 17.2386 89.7386 17.7159C90.4356 18.1932 90.9848 18.8068 91.3864 19.5568C91.7879 20.2992 91.9886 21.1894 91.9886 22.2273V34H87.3977V31.5795H87.2614C86.9811 32.125 86.6061 32.6061 86.1364 33.0227C85.6667 33.4318 85.1023 33.7538 84.4432 33.9886C83.7841 34.2159 83.0227 34.3295 82.1591 34.3295ZM83.5455 30.9886C84.2576 30.9886 84.8864 30.8485 85.4318 30.5682C85.9773 30.2803 86.4053 29.8939 86.7159 29.4091C87.0265 28.9242 87.1818 28.375 87.1818 27.7614V25.9091C87.0303 26.0076 86.822 26.0985 86.5568 26.1818C86.2992 26.2576 86.0076 26.3295 85.6818 26.3977C85.3561 26.4583 85.0303 26.5152 84.7045 26.5682C84.3788 26.6136 84.0833 26.6553 83.8182 26.6932C83.25 26.7765 82.7538 26.9091 82.3295 27.0909C81.9053 27.2727 81.5758 27.5189 81.3409 27.8295C81.1061 28.1326 80.9886 28.5114 80.9886 28.9659C80.9886 29.625 81.2273 30.1288 81.7045 30.4773C82.1894 30.8182 82.803 30.9886 83.5455 30.9886ZM98.108 40.5455C97.4943 40.5455 96.9186 40.4962 96.3807 40.3977C95.8504 40.3068 95.411 40.1894 95.0625 40.0455L96.1534 36.4318C96.7216 36.6061 97.233 36.7008 97.6875 36.7159C98.1496 36.7311 98.5473 36.625 98.8807 36.3977C99.2216 36.1705 99.4981 35.7841 99.7102 35.2386L99.9943 34.5L93.733 16.5455H98.8239L102.438 29.3636H102.619L106.267 16.5455H111.392L104.608 35.8864C104.282 36.8258 103.839 37.6439 103.278 38.3409C102.725 39.0455 102.025 39.5871 101.176 39.9659C100.328 40.3523 99.3049 40.5455 98.108 40.5455ZM122.21 34H113.96V10.7273H122.278C124.619 10.7273 126.634 11.1932 128.324 12.125C130.013 13.0492 131.313 14.3788 132.222 16.1136C133.138 17.8485 133.597 19.9242 133.597 22.3409C133.597 24.7652 133.138 26.8485 132.222 28.5909C131.313 30.3333 130.006 31.6705 128.301 32.6023C126.604 33.5341 124.574 34 122.21 34ZM118.881 29.7841H122.006C123.46 29.7841 124.684 29.5265 125.676 29.0114C126.676 28.4886 127.426 27.6818 127.926 26.5909C128.434 25.4924 128.688 24.0758 128.688 22.3409C128.688 20.6212 128.434 19.2159 127.926 18.125C127.426 17.0341 126.68 16.2311 125.688 15.7159C124.695 15.2008 123.472 14.9432 122.017 14.9432H118.881V29.7841ZM142.128 34.3295C141.014 34.3295 140.022 34.1364 139.151 33.75C138.279 33.3561 137.59 32.7765 137.082 32.0114C136.582 31.2386 136.332 30.2765 136.332 29.125C136.332 28.1553 136.51 27.3409 136.866 26.6818C137.223 26.0227 137.707 25.4924 138.321 25.0909C138.935 24.6894 139.632 24.3864 140.412 24.1818C141.2 23.9773 142.026 23.8333 142.889 23.75C143.904 23.6439 144.723 23.5455 145.344 23.4545C145.965 23.3561 146.416 23.2121 146.696 23.0227C146.976 22.8333 147.116 22.553 147.116 22.1818V22.1136C147.116 21.3939 146.889 20.8371 146.435 20.4432C145.988 20.0492 145.351 19.8523 144.526 19.8523C143.654 19.8523 142.961 20.0455 142.446 20.4318C141.931 20.8106 141.59 21.2879 141.423 21.8636L136.946 21.5C137.173 20.4394 137.62 19.5227 138.287 18.75C138.954 17.9697 139.813 17.3712 140.866 16.9545C141.927 16.5303 143.154 16.3182 144.548 16.3182C145.518 16.3182 146.446 16.4318 147.332 16.6591C148.226 16.8864 149.018 17.2386 149.707 17.7159C150.404 18.1932 150.954 18.8068 151.355 19.5568C151.757 20.2992 151.957 21.1894 151.957 22.2273V34H147.366V31.5795H147.23C146.95 32.125 146.575 32.6061 146.105 33.0227C145.635 33.4318 145.071 33.7538 144.412 33.9886C143.753 34.2159 142.991 34.3295 142.128 34.3295ZM143.514 30.9886C144.226 30.9886 144.855 30.8485 145.401 30.5682C145.946 30.2803 146.374 29.8939 146.685 29.4091C146.995 28.9242 147.151 28.375 147.151 27.7614V25.9091C146.999 26.0076 146.791 26.0985 146.526 26.1818C146.268 26.2576 145.976 26.3295 145.651 26.3977C145.325 26.4583 144.999 26.5152 144.673 26.5682C144.348 26.6136 144.052 26.6553 143.787 26.6932C143.219 26.7765 142.723 26.9091 142.298 27.0909C141.874 27.2727 141.545 27.5189 141.31 27.8295C141.075 28.1326 140.957 28.5114 140.957 28.9659C140.957 29.625 141.196 30.1288 141.673 30.4773C142.158 30.8182 142.772 30.9886 143.514 30.9886ZM155.713 34V16.5455H160.554V34H155.713ZM158.145 14.2955C157.425 14.2955 156.808 14.0568 156.293 13.5795C155.785 13.0947 155.531 12.5152 155.531 11.8409C155.531 11.1742 155.785 10.6023 156.293 10.125C156.808 9.64015 157.425 9.39773 158.145 9.39773C158.865 9.39773 159.478 9.64015 159.986 10.125C160.501 10.6023 160.759 11.1742 160.759 11.8409C160.759 12.5152 160.501 13.0947 159.986 13.5795C159.478 14.0568 158.865 14.2955 158.145 14.2955ZM169.273 10.7273V34H164.432V10.7273H169.273Z" fill="white"/>
<defs>
<clipPath id="clip0_294_990">
<rect width="45" height="45" fill="white"/>
</clipPath>
</defs>
</svg>
