<svg width="28" height="28" viewBox="0 0 28 28" fill="none" xmlns="http://www.w3.org/2000/svg">
<g clip-path="url(#clip0_495_416)">
<path d="M11.3542 24.9161C11.6103 25.3953 11.9917 25.796 12.4577 26.0754C12.9237 26.3548 13.4569 26.5023 14.0002 26.5023C14.5436 26.5023 15.0767 26.3548 15.5428 26.0754C16.0088 25.796 16.3902 25.3953 16.6462 24.9161M8.52423 3.76809C9.60725 2.68501 10.9871 1.94741 12.4894 1.64858C13.9916 1.34974 15.5487 1.5031 16.9638 2.08925C18.3788 2.67541 19.5883 3.66803 20.4392 4.94158C21.2902 6.21514 21.7443 7.71242 21.7442 9.24409C21.7442 10.4521 21.9442 11.5861 22.2442 12.7481C22.3282 13.0121 22.4196 13.2608 22.5182 13.4941C22.9822 14.5841 24.2602 14.9581 25.2142 15.6621C26.6362 16.7161 26.3622 18.9701 25.1782 19.8461C25.1782 19.8461 23.2682 21.5001 14.0002 21.5001C4.73223 21.5001 2.82223 19.8461 2.82223 19.8461C1.63823 18.9701 1.36223 16.7161 2.78623 15.6621C3.74023 14.9581 5.01823 14.5841 5.48223 13.4941C5.94423 12.4061 6.25623 11.0141 6.25623 9.24409C6.25623 7.19009 7.07223 5.22009 8.52423 3.76809Z" stroke="white" stroke-width="2" stroke-linecap="round" stroke-linejoin="round"/>
</g>
<defs>
<clipPath id="clip0_495_416">
<rect width="28" height="28" fill="white"/>
</clipPath>
</defs>
</svg>
