<svg width="24" height="24" viewBox="0 0 24 24" fill="none" xmlns="http://www.w3.org/2000/svg">
<g clip-path="url(#clip0_783_2654)">
<path d="M20.16 0H3.84C1.71923 0 0 1.71923 0 3.84V20.16C0 22.2808 1.71923 24 3.84 24H20.16C22.2808 24 24 22.2808 24 20.16V3.84C24 1.71923 22.2808 0 20.16 0Z" fill="#3B82F6"/>
<path d="M8.64001 18.2402V13.9202L16.32 10.5602V6.72021L18.24 7.68021V16.3202L10.56 19.2002L8.64001 18.2402ZM16.32 14.8802V12.4802L12.8316 13.9202L10.56 14.8802V16.3202L11.52 16.8002L16.32 14.8802Z" fill="white"/>
<path d="M15.36 5.7598V10.0798L7.68001 13.4398V17.2798L5.76001 16.3198V7.6798L13.44 4.7998L15.36 5.7598ZM7.68001 9.1198V11.5198L11.1685 10.0798L13.44 9.1198V7.6798L12.48 7.1998L7.68001 9.1198Z" fill="white"/>
</g>
<defs>
<clipPath id="clip0_783_2654">
<rect width="24" height="24" fill="white"/>
</clipPath>
</defs>
</svg>
