<svg width="25" height="25" viewBox="0 0 25 25" fill="none" xmlns="http://www.w3.org/2000/svg">
<path d="M4.21625 3.13752C6.4995 1.11154 9.44749 -0.00502614 12.5 1.70093e-05C19.4037 1.70093e-05 25 5.59627 25 12.5C25.0044 15.0549 24.2218 17.5492 22.7588 19.6438L19.375 12.5H22.5C22.5003 10.5116 21.9078 8.56825 20.7982 6.91823C19.6886 5.26821 18.1123 3.98645 16.2706 3.2367C14.429 2.48695 12.4056 2.30325 10.4591 2.70907C8.5125 3.11489 6.73112 4.09181 5.3425 5.51502L4.21625 3.13752ZM20.7825 21.8625C18.4996 23.8882 15.5521 25.0048 12.5 25C5.59625 25 0 19.4038 0 12.5C0 9.84377 0.82875 7.38127 2.24125 5.35627L5.625 12.5H2.5C2.50022 14.4881 3.093 16.4309 4.20264 18.0805C5.31227 19.73 6.8884 21.0114 8.72973 21.7609C10.5711 22.5105 12.594 22.6942 14.5402 22.2886C16.4865 21.883 18.2676 20.9065 19.6562 19.4838L20.7825 21.8625ZM14.2688 16.0338L10.7337 12.4988L7.1975 16.0338L5.43 14.2663L10.7337 8.96252L14.2688 12.4988L17.8037 8.96252L19.5725 10.7313L14.2688 16.0338Z" fill="#9AA2AC"/>
</svg>
