<svg width="26" height="27" viewBox="0 0 26 27" fill="none" xmlns="http://www.w3.org/2000/svg">
<path fill-rule="evenodd" clip-rule="evenodd" d="M12.7231 8.75C11.4799 8.75 10.2877 9.24386 9.40858 10.1229C8.5295 11.002 8.03564 12.1943 8.03564 13.4375C8.03564 14.6807 8.5295 15.873 9.40858 16.7521C10.2877 17.6311 11.4799 18.125 12.7231 18.125C13.9663 18.125 15.1586 17.6311 16.0377 16.7521C16.9168 15.873 17.4106 14.6807 17.4106 13.4375C17.4106 12.1943 16.9168 11.002 16.0377 10.1229C15.1586 9.24386 13.9663 8.75 12.7231 8.75ZM9.91064 13.4375C9.91064 12.6916 10.207 11.9762 10.7344 11.4488C11.2619 10.9213 11.9772 10.625 12.7231 10.625C13.4691 10.625 14.1844 10.9213 14.7119 11.4488C15.2393 11.9762 15.5356 12.6916 15.5356 13.4375C15.5356 14.1834 15.2393 14.8988 14.7119 15.4262C14.1844 15.9537 13.4691 16.25 12.7231 16.25C11.9772 16.25 11.2619 15.9537 10.7344 15.4262C10.207 14.8988 9.91064 14.1834 9.91064 13.4375Z" fill="#9AA2AC"/>
<path fill-rule="evenodd" clip-rule="evenodd" d="M12.6919 0C12.1356 0 11.6719 -2.32831e-08 11.2919 0.025C10.9034 0.0406454 10.5202 0.120911 10.1581 0.2625C9.74092 0.435112 9.36182 0.688217 9.04247 1.00736C8.72311 1.3265 8.46975 1.70543 8.29686 2.1225C8.11561 2.56 8.06686 3.0225 8.04686 3.525C8.04462 3.70873 7.99588 3.8889 7.90516 4.04868C7.81445 4.20847 7.68473 4.34267 7.52811 4.43875C7.36664 4.52665 7.18552 4.57218 7.00168 4.57109C6.81783 4.57 6.63727 4.52232 6.47686 4.4325C6.03186 4.1975 5.60686 4.00875 5.13686 3.94625C4.68929 3.88738 4.23451 3.91724 3.79848 4.03413C3.36245 4.15102 2.95371 4.35265 2.59561 4.6275C2.29235 4.8706 2.0317 5.16251 1.82436 5.49125C1.61186 5.80875 1.37936 6.21 1.10186 6.69125L1.07061 6.74625C0.791857 7.2275 0.560607 7.62875 0.393107 7.97125C0.218107 8.32875 0.0806072 8.68125 0.0306072 9.07125C-0.0886425 9.97499 0.155957 10.8891 0.710607 11.6125C0.999357 11.9887 1.37561 12.2625 1.80061 12.53C1.9589 12.6239 2.09078 12.7563 2.18392 12.9151C2.27705 13.0738 2.32838 13.2535 2.33311 13.4375C2.32838 13.6215 2.27705 13.8012 2.18392 13.9599C2.09078 14.1187 1.9589 14.2511 1.80061 14.345C1.37561 14.6125 1.00061 14.8863 0.710607 15.2625C0.435753 15.6206 0.234125 16.0293 0.117236 16.4654C0.000346797 16.9014 -0.0295144 17.3562 0.0293573 17.8037C0.0806073 18.1938 0.216857 18.5462 0.391857 18.9037C0.560607 19.2462 0.791857 19.6475 1.07061 20.1287L1.10186 20.1838C1.37936 20.665 1.61186 21.0662 1.82436 21.3838C2.04561 21.7125 2.28311 22.0088 2.59561 22.2463C2.95362 22.5213 3.36231 22.7232 3.79834 22.8403C4.23438 22.9574 4.68921 22.9874 5.13686 22.9288C5.60686 22.8663 6.03186 22.6788 6.47686 22.4425C6.63712 22.3529 6.81745 22.3053 7.00105 22.3043C7.18465 22.3032 7.36554 22.3486 7.52686 22.4362C7.68475 22.5311 7.81561 22.665 7.90689 22.825C7.99817 22.985 8.04679 23.1658 8.04811 23.35C8.06686 23.8525 8.11561 24.315 8.29811 24.7525C8.47072 25.1697 8.72382 25.5488 9.04297 25.8681C9.36211 26.1875 9.74104 26.4409 10.1581 26.6138C10.5206 26.7638 10.8956 26.8225 11.2919 26.8488C11.6719 26.875 12.1356 26.875 12.6919 26.875H12.7544C13.3106 26.875 13.7744 26.875 14.1544 26.85C14.5519 26.8225 14.9256 26.7638 15.2881 26.6125C15.7053 26.4399 16.0844 26.1868 16.4037 25.8676C16.7231 25.5485 16.9765 25.1696 17.1494 24.7525C17.3306 24.315 17.3794 23.8525 17.3994 23.35C17.4014 23.1661 17.45 22.9856 17.5408 22.8256C17.6315 22.6656 17.7613 22.5312 17.9181 22.435C18.0797 22.3473 18.2609 22.302 18.4447 22.3033C18.6285 22.3046 18.809 22.3525 18.9694 22.4425C19.4144 22.6775 19.8394 22.8662 20.3094 22.9275C21.2131 23.0467 22.1272 22.8022 22.8506 22.2475C23.1631 22.0075 23.4006 21.7125 23.6219 21.3838C23.8344 21.0662 24.0669 20.665 24.3444 20.1838L24.3756 20.1287C24.6544 19.6475 24.8856 19.2462 25.0531 18.9037C25.2281 18.5462 25.3656 18.1925 25.4156 17.8037C25.5349 16.9 25.2903 15.9859 24.7356 15.2625C24.4469 14.8863 24.0706 14.6125 23.6456 14.345C23.4873 14.2511 23.3554 14.1187 23.2623 13.9599C23.1692 13.8012 23.1178 13.6215 23.1131 13.4375C23.1131 13.09 23.3031 12.745 23.6456 12.53C24.0706 12.2625 24.4456 11.9887 24.7356 11.6125C25.0105 11.2544 25.2121 10.8457 25.329 10.4096C25.4459 9.9736 25.4757 9.51882 25.4169 9.07125C25.358 8.687 25.2354 8.31524 25.0544 7.97125C24.8409 7.55597 24.6145 7.14744 24.3756 6.74625L24.3444 6.69125C24.116 6.28385 23.8751 5.88366 23.6219 5.49125C23.4144 5.16295 23.1538 4.87147 22.8506 4.62875C22.4926 4.35368 22.0839 4.15182 21.6479 4.03472C21.2118 3.91762 20.757 3.88755 20.3094 3.94625C19.8394 4.00875 19.4144 4.19625 18.9694 4.4325C18.8091 4.52209 18.6288 4.56965 18.4452 4.57075C18.2616 4.57184 18.0807 4.52643 17.9194 4.43875C17.7623 4.34297 17.6321 4.2089 17.5409 4.0491C17.4497 3.88929 17.4006 3.70896 17.3981 3.525C17.3794 3.0225 17.3306 2.56 17.1481 2.1225C16.9755 1.70531 16.7224 1.32621 16.4032 1.00686C16.0841 0.687501 15.7052 0.434142 15.2881 0.26125C14.9256 0.11125 14.5506 0.0525 14.1544 0.02625C13.7744 3.49246e-08 13.3106 0 12.7544 0H12.6919ZM10.8756 1.99375C10.9719 1.95375 11.1181 1.9175 11.4194 1.89625C11.7281 1.875 12.1281 1.875 12.7231 1.875C13.3181 1.875 13.7181 1.875 14.0269 1.89625C14.3281 1.9175 14.4744 1.95375 14.5706 1.99375C14.9544 2.1525 15.2581 2.45625 15.4169 2.84C15.4669 2.96 15.5081 3.14875 15.5244 3.595C15.5619 4.585 16.0731 5.53875 16.9806 6.0625C17.8881 6.58625 18.9694 6.5525 19.8456 6.09C20.2406 5.88125 20.4244 5.8225 20.5544 5.80625C20.9651 5.75198 21.3805 5.86304 21.7094 6.115C21.7919 6.17875 21.8969 6.2875 22.0656 6.5375C22.2394 6.795 22.4394 7.14125 22.7369 7.65625C23.0344 8.17125 23.2331 8.51875 23.3694 8.79625C23.5031 9.0675 23.5444 9.2125 23.5569 9.31625C23.6111 9.72696 23.5001 10.1424 23.2481 10.4712C23.1681 10.575 23.0256 10.705 22.6481 10.9425C21.8081 11.47 21.2381 12.39 21.2381 13.4375C21.2381 14.485 21.8081 15.405 22.6481 15.9325C23.0256 16.17 23.1681 16.3 23.2481 16.4037C23.5006 16.7325 23.6106 17.1475 23.5569 17.5588C23.5444 17.6625 23.5019 17.8088 23.3694 18.0788C23.2331 18.3575 23.0344 18.7038 22.7369 19.2188C22.4394 19.7337 22.2381 20.08 22.0656 20.3375C21.8969 20.5875 21.7919 20.6962 21.7094 20.76C21.3805 21.012 20.9651 21.123 20.5544 21.0687C20.4244 21.0525 20.2419 20.9937 19.8456 20.785C18.9706 20.3225 17.8881 20.2875 16.9806 20.8113C16.0731 21.335 15.5619 22.29 15.5244 23.28C15.5081 23.7263 15.4669 23.915 15.4169 24.035C15.3383 24.2247 15.2232 24.3972 15.078 24.5424C14.9328 24.6876 14.7604 24.8027 14.5706 24.8813C14.4744 24.9213 14.3281 24.9575 14.0269 24.9788C13.7181 25 13.3181 25 12.7231 25C12.1281 25 11.7281 25 11.4194 24.9788C11.1181 24.9575 10.9719 24.9213 10.8756 24.8813C10.6859 24.8027 10.5135 24.6876 10.3682 24.5424C10.223 24.3972 10.1079 24.2247 10.0294 24.035C9.97936 23.915 9.93811 23.7263 9.92186 23.28C9.88436 22.29 9.37311 21.3363 8.46561 20.8125C7.55811 20.2887 6.47686 20.3225 5.60061 20.785C5.20561 20.9937 5.02186 21.0525 4.89186 21.0687C4.48115 21.123 4.0657 21.012 3.73686 20.76C3.65436 20.6962 3.54936 20.5875 3.38061 20.3375C3.14546 19.9715 2.9216 19.5984 2.70936 19.2188C2.41186 18.7038 2.21311 18.3563 2.07686 18.0788C1.94311 17.8075 1.90186 17.6625 1.88936 17.5588C1.83509 17.148 1.94614 16.7326 2.19811 16.4037C2.27811 16.3 2.42061 16.17 2.79811 15.9325C3.63811 15.405 4.20811 14.485 4.20811 13.4375C4.20811 12.39 3.63811 11.47 2.79811 10.9425C2.42061 10.705 2.27811 10.575 2.19811 10.4712C1.94614 10.1424 1.83509 9.72696 1.88936 9.31625C1.90186 9.2125 1.94436 9.06625 2.07686 8.79625C2.21311 8.5175 2.41186 8.17125 2.70936 7.65625C3.00686 7.14125 3.20811 6.795 3.38061 6.5375C3.54936 6.2875 3.65436 6.17875 3.73686 6.115C4.0657 5.86304 4.48115 5.75198 4.89186 5.80625C5.02186 5.8225 5.20436 5.88125 5.60061 6.09C6.47561 6.5525 7.55811 6.5875 8.46561 6.0625C9.37311 5.53875 9.88436 4.585 9.92186 3.595C9.93811 3.14875 9.97936 2.96 10.0294 2.84C10.1881 2.45625 10.4919 2.1525 10.8756 1.99375Z" fill="#9AA2AC"/>
</svg>
