<svg width="42" height="43" viewBox="0 0 42 43" fill="none" xmlns="http://www.w3.org/2000/svg">
<rect width="41.4462" height="42.875" rx="12" fill="#F7931A" fill-opacity="0.1"/>
<path fill-rule="evenodd" clip-rule="evenodd" d="M20.7227 16.75C19.4795 16.75 18.2872 17.2439 17.4081 18.1229C16.529 19.002 16.0352 20.1943 16.0352 21.4375C16.0352 22.6807 16.529 23.873 17.4081 24.7521C18.2872 25.6311 19.4795 26.125 20.7227 26.125C21.9659 26.125 23.1581 25.6311 24.0372 24.7521C24.9163 23.873 25.4102 22.6807 25.4102 21.4375C25.4102 20.1943 24.9163 19.002 24.0372 18.1229C23.1581 17.2439 21.9659 16.75 20.7227 16.75ZM17.9102 21.4375C17.9102 20.6916 18.2065 19.9762 18.7339 19.4488C19.2614 18.9213 19.9767 18.625 20.7227 18.625C21.4686 18.625 22.1839 18.9213 22.7114 19.4488C23.2388 19.9762 23.5352 20.6916 23.5352 21.4375C23.5352 22.1834 23.2388 22.8988 22.7114 23.4262C22.1839 23.9537 21.4686 24.25 20.7227 24.25C19.9767 24.25 19.2614 23.9537 18.7339 23.4262C18.2065 22.8988 17.9102 22.1834 17.9102 21.4375Z" fill="#F7931A"/>
<path fill-rule="evenodd" clip-rule="evenodd" d="M20.6919 8C20.1356 8 19.6719 8 19.2919 8.025C18.9034 8.04065 18.5202 8.12091 18.1581 8.2625C17.7409 8.43511 17.3618 8.68822 17.0425 9.00736C16.7231 9.3265 16.4697 9.70543 16.2969 10.1225C16.1156 10.56 16.0669 11.0225 16.0469 11.525C16.0446 11.7087 15.9959 11.8889 15.9052 12.0487C15.8144 12.2085 15.6847 12.3427 15.5281 12.4388C15.3666 12.5267 15.1855 12.5722 15.0017 12.5711C14.8178 12.57 14.6373 12.5223 14.4769 12.4325C14.0319 12.1975 13.6069 12.0087 13.1369 11.9462C12.6893 11.8874 12.2345 11.9172 11.7985 12.0341C11.3624 12.151 10.9537 12.3526 10.5956 12.6275C10.2923 12.8706 10.0317 13.1625 9.82436 13.4913C9.61186 13.8088 9.37936 14.21 9.10186 14.6913L9.07061 14.7462C8.79186 15.2275 8.56061 15.6287 8.39311 15.9712C8.21811 16.3287 8.08061 16.6812 8.03061 17.0712C7.91136 17.975 8.15596 18.8891 8.71061 19.6125C8.99936 19.9887 9.37561 20.2625 9.80061 20.53C9.9589 20.6239 10.0908 20.7563 10.1839 20.9151C10.277 21.0738 10.3284 21.2535 10.3331 21.4375C10.3284 21.6215 10.277 21.8012 10.1839 21.9599C10.0908 22.1187 9.9589 22.2511 9.80061 22.345C9.37561 22.6125 9.00061 22.8863 8.71061 23.2625C8.43575 23.6206 8.23413 24.0293 8.11724 24.4654C8.00035 24.9014 7.97049 25.3562 8.02936 25.8037C8.08061 26.1938 8.21686 26.5462 8.39186 26.9037C8.56061 27.2462 8.79186 27.6475 9.07061 28.1287L9.10186 28.1838C9.37936 28.665 9.61186 29.0662 9.82436 29.3838C10.0456 29.7125 10.2831 30.0088 10.5956 30.2463C10.9536 30.5213 11.3623 30.7232 11.7983 30.8403C12.2344 30.9574 12.6892 30.9874 13.1369 30.9288C13.6069 30.8663 14.0319 30.6788 14.4769 30.4425C14.6371 30.3529 14.8175 30.3053 15.0011 30.3043C15.1847 30.3032 15.3655 30.3486 15.5269 30.4362C15.6848 30.5311 15.8156 30.665 15.9069 30.825C15.9982 30.985 16.0468 31.1658 16.0481 31.35C16.0669 31.8525 16.1156 32.315 16.2981 32.7525C16.4707 33.1697 16.7238 33.5488 17.043 33.8681C17.3621 34.1875 17.741 34.4409 18.1581 34.6138C18.5206 34.7638 18.8956 34.8225 19.2919 34.8488C19.6719 34.875 20.1356 34.875 20.6919 34.875H20.7544C21.3106 34.875 21.7744 34.875 22.1544 34.85C22.5519 34.8225 22.9256 34.7638 23.2881 34.6125C23.7053 34.4399 24.0844 34.1868 24.4037 33.8676C24.7231 33.5485 24.9765 33.1696 25.1494 32.7525C25.3306 32.315 25.3794 31.8525 25.3994 31.35C25.4014 31.1661 25.45 30.9856 25.5408 30.8256C25.6315 30.6656 25.7613 30.5312 25.9181 30.435C26.0797 30.3473 26.2609 30.302 26.4447 30.3033C26.6285 30.3046 26.809 30.3525 26.9694 30.4425C27.4144 30.6775 27.8394 30.8662 28.3094 30.9275C29.2131 31.0467 30.1272 30.8022 30.8506 30.2475C31.1631 30.0075 31.4006 29.7125 31.6219 29.3838C31.8344 29.0662 32.0669 28.665 32.3444 28.1838L32.3756 28.1287C32.6544 27.6475 32.8856 27.2462 33.0531 26.9037C33.2281 26.5462 33.3656 26.1925 33.4156 25.8037C33.5349 24.9 33.2903 23.9859 32.7356 23.2625C32.4469 22.8863 32.0706 22.6125 31.6456 22.345C31.4873 22.2511 31.3554 22.1187 31.2623 21.9599C31.1692 21.8012 31.1178 21.6215 31.1131 21.4375C31.1131 21.09 31.3031 20.745 31.6456 20.53C32.0706 20.2625 32.4456 19.9887 32.7356 19.6125C33.0105 19.2544 33.2121 18.8457 33.329 18.4096C33.4459 17.9736 33.4757 17.5188 33.4169 17.0712C33.358 16.687 33.2354 16.3152 33.0544 15.9712C32.8409 15.556 32.6145 15.1474 32.3756 14.7462L32.3444 14.6913C32.116 14.2838 31.8751 13.8837 31.6219 13.4913C31.4144 13.163 31.1538 12.8715 30.8506 12.6287C30.4926 12.3537 30.0839 12.1518 29.6479 12.0347C29.2118 11.9176 28.757 11.8876 28.3094 11.9462C27.8394 12.0087 27.4144 12.1962 26.9694 12.4325C26.8091 12.5221 26.6288 12.5697 26.4452 12.5707C26.2616 12.5718 26.0807 12.5264 25.9194 12.4388C25.7623 12.343 25.6321 12.2089 25.5409 12.0491C25.4497 11.8893 25.4006 11.709 25.3981 11.525C25.3794 11.0225 25.3306 10.56 25.1481 10.1225C24.9755 9.70531 24.7224 9.32621 24.4032 9.00686C24.0841 8.6875 23.7052 8.43414 23.2881 8.26125C22.9256 8.11125 22.5506 8.0525 22.1544 8.02625C21.7744 8 21.3106 8 20.7544 8H20.6919ZM18.8756 9.99375C18.9719 9.95375 19.1181 9.9175 19.4194 9.89625C19.7281 9.875 20.1281 9.875 20.7231 9.875C21.3181 9.875 21.7181 9.875 22.0269 9.89625C22.3281 9.9175 22.4744 9.95375 22.5706 9.99375C22.9544 10.1525 23.2581 10.4563 23.4169 10.84C23.4669 10.96 23.5081 11.1487 23.5244 11.595C23.5619 12.585 24.0731 13.5387 24.9806 14.0625C25.8881 14.5862 26.9694 14.5525 27.8456 14.09C28.2406 13.8813 28.4244 13.8225 28.5544 13.8063C28.9651 13.752 29.3805 13.863 29.7094 14.115C29.7919 14.1788 29.8969 14.2875 30.0656 14.5375C30.2394 14.795 30.4394 15.1413 30.7369 15.6562C31.0344 16.1713 31.2331 16.5187 31.3694 16.7962C31.5031 17.0675 31.5444 17.2125 31.5569 17.3162C31.6111 17.727 31.5001 18.1424 31.2481 18.4712C31.1681 18.575 31.0256 18.705 30.6481 18.9425C29.8081 19.47 29.2381 20.39 29.2381 21.4375C29.2381 22.485 29.8081 23.405 30.6481 23.9325C31.0256 24.17 31.1681 24.3 31.2481 24.4037C31.5006 24.7325 31.6106 25.1475 31.5569 25.5588C31.5444 25.6625 31.5019 25.8088 31.3694 26.0788C31.2331 26.3575 31.0344 26.7038 30.7369 27.2188C30.4394 27.7337 30.2381 28.08 30.0656 28.3375C29.8969 28.5875 29.7919 28.6962 29.7094 28.76C29.3805 29.012 28.9651 29.123 28.5544 29.0687C28.4244 29.0525 28.2419 28.9937 27.8456 28.785C26.9706 28.3225 25.8881 28.2875 24.9806 28.8113C24.0731 29.335 23.5619 30.29 23.5244 31.28C23.5081 31.7263 23.4669 31.915 23.4169 32.035C23.3383 32.2247 23.2232 32.3972 23.078 32.5424C22.9328 32.6876 22.7604 32.8027 22.5706 32.8813C22.4744 32.9213 22.3281 32.9575 22.0269 32.9788C21.7181 33 21.3181 33 20.7231 33C20.1281 33 19.7281 33 19.4194 32.9788C19.1181 32.9575 18.9719 32.9213 18.8756 32.8813C18.6859 32.8027 18.5135 32.6876 18.3682 32.5424C18.223 32.3972 18.1079 32.2247 18.0294 32.035C17.9794 31.915 17.9381 31.7263 17.9219 31.28C17.8844 30.29 17.3731 29.3363 16.4656 28.8125C15.5581 28.2887 14.4769 28.3225 13.6006 28.785C13.2056 28.9937 13.0219 29.0525 12.8919 29.0687C12.4812 29.123 12.0657 29.012 11.7369 28.76C11.6544 28.6962 11.5494 28.5875 11.3806 28.3375C11.1455 27.9715 10.9216 27.5984 10.7094 27.2188C10.4119 26.7038 10.2131 26.3563 10.0769 26.0788C9.94311 25.8075 9.90186 25.6625 9.88936 25.5588C9.83509 25.148 9.94614 24.7326 10.1981 24.4037C10.2781 24.3 10.4206 24.17 10.7981 23.9325C11.6381 23.405 12.2081 22.485 12.2081 21.4375C12.2081 20.39 11.6381 19.47 10.7981 18.9425C10.4206 18.705 10.2781 18.575 10.1981 18.4712C9.94614 18.1424 9.83509 17.727 9.88936 17.3162C9.90186 17.2125 9.94436 17.0662 10.0769 16.7962C10.2131 16.5175 10.4119 16.1713 10.7094 15.6562C11.0069 15.1413 11.2081 14.795 11.3806 14.5375C11.5494 14.2875 11.6544 14.1788 11.7369 14.115C12.0657 13.863 12.4812 13.752 12.8919 13.8063C13.0219 13.8225 13.2044 13.8813 13.6006 14.09C14.4756 14.5525 15.5581 14.5875 16.4656 14.0625C17.3731 13.5387 17.8844 12.585 17.9219 11.595C17.9381 11.1487 17.9794 10.96 18.0294 10.84C18.1881 10.4563 18.4919 10.1525 18.8756 9.99375Z" fill="#F7931A"/>
</svg>
