<svg width="22" height="27" viewBox="0 0 22 27" fill="none" xmlns="http://www.w3.org/2000/svg">
<path d="M1 1V26L3.5 24.75L6 26L8.5 24.75L11 26L13.5 24.75L16 26L18.5 24.75L21 26V1L18.5 2.25L16 1L13.5 2.25L11 1L8.5 2.25L6 1L3.5 2.25L1 1Z" stroke="#9AA2AC" stroke-width="2" stroke-linecap="round" stroke-linejoin="round"/>
<path d="M16 8.5H8.5C7.83696 8.5 7.20107 8.76339 6.73223 9.23223C6.26339 9.70107 6 10.337 6 11C6 11.663 6.26339 12.2989 6.73223 12.7678C7.20107 13.2366 7.83696 13.5 8.5 13.5H13.5C14.163 13.5 14.7989 13.7634 15.2678 14.2322C15.7366 14.7011 16 15.337 16 16C16 16.663 15.7366 17.2989 15.2678 17.7678C14.7989 18.2366 14.163 18.5 13.5 18.5H6M11 20.375V6.625" stroke="#9AA2AC" stroke-width="2" stroke-linecap="round" stroke-linejoin="round"/>
</svg>
