<svg width="27" height="26" viewBox="0 0 27 26" fill="none" xmlns="http://www.w3.org/2000/svg">
<path d="M0.75 22.625V8.875C0.75 8.21196 1.01339 7.57607 1.48223 7.10723C1.95107 6.63839 2.58696 6.375 3.25 6.375H23.25C23.913 6.375 24.5489 6.63839 25.0178 7.10723C25.4866 7.57607 25.75 8.21196 25.75 8.875V22.625C25.75 23.288 25.4866 23.9239 25.0178 24.3928C24.5489 24.8616 23.913 25.125 23.25 25.125H3.25C2.58696 25.125 1.95107 24.8616 1.48223 24.3928C1.01339 23.9239 0.75 23.288 0.75 22.625Z" stroke="#327DF5" stroke-width="1.5"/>
<path d="M8.875 0.75L13.25 5.125L17.625 0.75" stroke="#327DF5" stroke-width="1.5" stroke-linecap="round" stroke-linejoin="round"/>
</svg>
