<svg width="33" height="27" viewBox="0 0 33 27" fill="none" xmlns="http://www.w3.org/2000/svg">
<path d="M0.75 25.442C0.75 25.442 5.208 19.75 16.208 19.75C27.208 19.75 31.668 25.442 31.668 25.442M16.208 12.75C17.7993 12.75 19.3254 12.1179 20.4506 10.9926C21.5759 9.86742 22.208 8.3413 22.208 6.75C22.208 5.1587 21.5759 3.63258 20.4506 2.50736C19.3254 1.38214 17.7993 0.75 16.208 0.75C14.6167 0.75 13.0906 1.38214 11.9654 2.50736C10.8401 3.63258 10.208 5.1587 10.208 6.75C10.208 8.3413 10.8401 9.86742 11.9654 10.9926C13.0906 12.1179 14.6167 12.75 16.208 12.75Z" fill="#1A2135"/>
<path d="M0.75 25.442C0.75 25.442 5.208 19.75 16.208 19.75C27.208 19.75 31.668 25.442 31.668 25.442M16.208 12.75C17.7993 12.75 19.3254 12.1179 20.4506 10.9926C21.5759 9.86742 22.208 8.3413 22.208 6.75C22.208 5.1587 21.5759 3.63258 20.4506 2.50736C19.3254 1.38214 17.7993 0.75 16.208 0.75C14.6167 0.75 13.0906 1.38214 11.9654 2.50736C10.8401 3.63258 10.208 5.1587 10.208 6.75C10.208 8.3413 10.8401 9.86742 11.9654 10.9926C13.0906 12.1179 14.6167 12.75 16.208 12.75Z" stroke="#4786F9" stroke-width="1.5" stroke-linecap="round" stroke-linejoin="round"/>
</svg>
