<svg width="40" height="40" viewBox="0 0 40 40" fill="none" xmlns="http://www.w3.org/2000/svg">
<rect width="39.7188" height="39.7188" rx="12" fill="#F44336" fill-opacity="0.1"/>
<path d="M25.2188 16.25L14.0937 27.375C13.8646 27.6042 13.5729 27.7188 13.2187 27.7188C12.8646 27.7188 12.5729 27.6042 12.3437 27.375C12.1146 27.1458 12 26.8542 12 26.5C12 26.1458 12.1146 25.8542 12.3437 25.625L23.4688 14.5H13.9687C13.6146 14.5 13.3179 14.38 13.0787 14.14C12.8396 13.9 12.7196 13.6033 12.7187 13.25C12.7179 12.8967 12.8379 12.6 13.0787 12.36C13.3196 12.12 13.6162 12 13.9687 12H26.4688C26.8229 12 27.12 12.12 27.36 12.36C27.6 12.6 27.7196 12.8967 27.7188 13.25V25.75C27.7188 26.1042 27.5987 26.4012 27.3587 26.6412C27.1187 26.8812 26.8221 27.0008 26.4688 27C26.1154 26.9992 25.8187 26.8792 25.5787 26.64C25.3387 26.4008 25.2188 26.1042 25.2188 25.75V16.25Z" fill="#F44336"/>
</svg>
