<svg width="16" height="16" viewBox="0 0 16 16" fill="none" xmlns="http://www.w3.org/2000/svg">
<path d="M13.2188 4.25L2.09375 15.375C1.86458 15.6042 1.57292 15.7188 1.21875 15.7188C0.864583 15.7188 0.572916 15.6042 0.34375 15.375C0.114583 15.1458 0 14.8542 0 14.5C0 14.1458 0.114583 13.8542 0.34375 13.625L11.4688 2.5H1.96875C1.61458 2.5 1.31792 2.38 1.07875 2.14C0.839583 1.9 0.719583 1.60333 0.71875 1.25C0.717916 0.896667 0.837917 0.6 1.07875 0.36C1.31958 0.12 1.61625 0 1.96875 0H14.4688C14.8229 0 15.12 0.12 15.36 0.36C15.6 0.6 15.7196 0.896667 15.7188 1.25V13.75C15.7188 14.1042 15.5987 14.4012 15.3587 14.6412C15.1187 14.8812 14.8221 15.0008 14.4688 15C14.1154 14.9992 13.8187 14.8792 13.5787 14.64C13.3387 14.4008 13.2188 14.1042 13.2188 13.75V4.25Z" fill="#3981F8"/>
</svg>
